<svg id="Layer_1" data-name="Layer 1" xmlns="http://www.w3.org/2000/svg" viewBox="0 0 355 355"><defs><style>.cls-1{fill:none;}</style></defs><rect class="cls-1" width="355" height="355"/><path d="M309.15,229.51a120.24,120.24,0,0,0-7.4-18.89c-2.53-5.07-5.44-10-8.25-14.7-1.28-2.16-2.56-4.31-3.8-6.47q-3.36-5.87-6.71-11.73-2.94-5.16-5.89-10.32-6.32-11-12.66-22l-5.64-9.76q-3.48-6-6.93-12c-1.21-2.09-2.39-4.19-3.58-6.3-2.25-4-4.57-8.11-7-12.12L240,102.92a54.42,54.42,0,0,0-7.59-10.75c-10.86-11.1-24.55-10.4-33.9-8.9A5.63,5.63,0,0,0,194,86.33c-.6,1.25-1,3.34.61,6.17,4,7.19,8.24,14.45,12.28,21.47l1.47,2.55q2.92,5.08,5.87,10.17,4.35,7.53,8.68,15.07c2.21,3.85,4.39,7.71,6.58,11.58q3.83,6.76,7.69,13.53,3.78,6.56,7.61,13.09,3.46,5.92,6.9,11.87l2.43,4.22c4.74,8.21,9.63,16.69,14.29,25.1a88.46,88.46,0,0,1,5.92,12.46c2.74,7.46,2.61,15.32,2.13,22-.54,7.41-3.19,14.78-8.1,22.51A44.3,44.3,0,0,1,251.88,294c-4.84,2.58-9.21,4.79-13.62,5.82a82.42,82.42,0,0,1-18.16,2c-34.61.21-69.81.24-103.84.28l-21.28,0a26.08,26.08,0,0,1-5.25-.39,107,107,0,0,1-26.22-8.42A119.32,119.32,0,0,1,37,276.72a149.45,149.45,0,0,1-16.94-17,130.13,130.13,0,0,1-8.53-11.48c-1.32-1.92-2.7-3.92-4.16-5.95A4,4,0,0,0,.1,244.61c0,.55,0,1,0,1.52a13.26,13.26,0,0,0,.19,3.78c.32,1.35.63,2.7.94,4.06,1.18,5.17,2.41,10.53,4,15.75,2.72,8.87,7.51,17.6,14.64,26.69a97.63,97.63,0,0,0,38.75,29.86,108.08,108.08,0,0,0,23.8,6.65,239.87,239.87,0,0,0,27.52,2.91c7.19.43,14.47.47,21.51.5,1.74,0,3.48,0,5.21,0l29.63.18c18.09.09,36.8.19,55.19.45h1.27a90.38,90.38,0,0,0,40.69-9.83,88.51,88.51,0,0,0,27.72-21.8,84.15,84.15,0,0,0,12.74-19.72,76.3,76.3,0,0,0,7.15-23.8C312.49,249,311.9,238.7,309.15,229.51Z"/><path d="M18.8,222.84c1.73,8.21,5.33,15.43,9,22,4.1,7.44,9.76,13.57,14.76,18.58a71.94,71.94,0,0,0,18.09,13.16,98.36,98.36,0,0,0,12.71,5.11l3.46,1.21c7.17,2.58,15.25,3.79,25.44,3.81l21,0,27,.05,18.38,0c12,0,24.28,0,36.57,0,7.56,0,15.12,0,22.64,0A29,29,0,0,0,245,281c5.9-4.28,10.31-10.12,13.48-17.86.41-1,1.68-4.12-.12-6.84s-5.38-2.84-6.71-2.86l-15.56-.22c-12.94-.18-26.32-.37-39.49-.46-33.6-.24-63.93-.44-94.86-.45a50,50,0,0,1-29.67-9.57C59.73,233.84,52.42,221.17,50.34,205a39.22,39.22,0,0,1,1.19-15.5,72.74,72.74,0,0,1,4.79-13.22c2.56-5.05,5.49-10.09,8.33-15,1.23-2.1,2.46-4.21,3.66-6.33l3.42-6q4.62-8.13,9.26-16.26c1.45-2.54,2.92-5.07,4.38-7.6,2-3.43,4-6.87,5.93-10.32q2.81-5,5.56-9.92c2.23-4,4.55-8.15,6.86-12.2,1.72-3,3.53-6,5.28-9,3.19-5.35,6.48-10.89,9.44-16.55,4.57-8.77,11.33-16.48,21.91-25a119.06,119.06,0,0,1,22-13.72,97.36,97.36,0,0,1,23.12-8.3C191,19,196.9,18.28,202.56,17.62c2.72-.31,5.53-.63,8.31-1a15.92,15.92,0,0,0,2.64-.65l1.25-.36A4,4,0,0,0,216,8.47L215.37,8a6.07,6.07,0,0,0-1.69-1c-8.31-3-17.25-6-27.14-6.67-17.33-1.14-31.3.76-44,6A98.46,98.46,0,0,0,116.7,22C100.84,35.3,89.26,52.09,80.94,65.24,76.66,72,72.51,79,68.49,85.72l-3.71,6.21c-6,10.07-12.16,20.36-18.22,30.6-2,3.34-3.94,6.7-5.89,10.05-2.8,4.8-5.7,9.76-8.6,14.59-5.32,8.84-11.22,19.26-13.77,31.1-2,9.16-3.62,19-2.32,29.07C16.67,212.58,17.7,217.67,18.8,222.84Z"/><path d="M348.46,202.83a177.49,177.49,0,0,0-8.64-20.66c-4.18-8.67-8.76-17.13-13.18-25.3-2.49-4.61-5.12-9.22-7.66-13.67-1.42-2.48-2.83-4.95-4.23-7.44q-2.91-5.17-5.79-10.37-3.3-5.9-6.6-11.79L298.68,107c-3.62-6.49-7.37-13.19-11.25-19.7l-1.52-2.57a170.62,170.62,0,0,0-12-18.33c-14.27-18.25-33.57-29.25-57.37-32.7C197.71,31,180,34.12,164,43.05c-13.45,7.51-23.23,16.57-29.89,27.69l-4.18,7c-4.68,7.8-9.52,15.87-14.21,23.85-2.71,4.62-5.4,9.34-8,13.91-2.12,3.71-4.24,7.43-6.38,11.13-2.52,4.34-5.08,8.65-7.63,13q-3.45,5.83-6.88,11.69c-5.25,9-10.43,18-14.81,25.68-.57,1-1.2,2-1.86,3A40.86,40.86,0,0,0,65.55,189c-4.09,12.75-1.4,25,8,36.28,2,2.43,4.1,2.79,5.5,2.68s3.38-.81,4.94-3.5,3.2-5.55,4.79-8.33q2.53-4.47,5.12-8.92,4-6.81,8-13.6,3.52-6,7-11.92,5.66-9.66,11.26-19.34l5.3-9.12q5.12-8.81,10.22-17.62,2.74-4.77,5.48-9.57c2.17-3.79,4.34-7.59,6.53-11.37q3.45-6,6.94-11.88,2.19-3.72,4.37-7.45c4.35-7.46,9.18-13.07,14.76-17.17a56.72,56.72,0,0,1,19-9.06,52,52,0,0,1,21.88-.83,47.79,47.79,0,0,1,20.4,8.58,52.73,52.73,0,0,1,14.61,15.36c3.44,5.63,6.83,11.44,10.11,17.06,1.63,2.8,3.27,5.61,4.92,8.4q3.55,6,7.12,12l7.2,12.18,4.61,7.85c1.9,3.26,3.8,6.51,5.73,9.76,2.18,3.69,4.39,7.37,6.6,11.06l4.13,6.9q1.83,3.06,3.67,6.12c3,4.89,6,9.95,8.83,15a142.17,142.17,0,0,1,7.91,16,57,57,0,0,1,2.79,11.7l.46,2.78A146.77,146.77,0,0,1,326,246.62,93,93,0,0,1,321.09,281c-1.93,5.64-4.28,11.31-6.56,16.8l-1,2.4c-.66,1.6-1.51,3.18-2.4,4.85-.43.81-.86,1.61-1.28,2.42a4,4,0,0,0,1,4.85l.47.41a4,4,0,0,0,2.62,1,4.05,4.05,0,0,0,2.12-.6l.43-.25a12.13,12.13,0,0,0,1.79-1.2c10.77-9.18,19-18.89,25.12-29.69A91.72,91.72,0,0,0,354,250.86C356.34,236.29,354.64,221.48,348.46,202.83Z"/></svg>