<svg width="28" height="28" viewBox="0 0 28 28" fill="none" xmlns="http://www.w3.org/2000/svg">
<path d="M2.02077 19.1042C2.3393 19.5329 2.5955 19.9348 2.91402 20.2899C3.28794 20.7053 3.68263 21.1072 4.11887 21.4556C4.69359 21.9178 5.33064 22.293 6.00923 22.6011C6.61165 22.8758 7.23485 23.0701 7.88574 23.1839C8.02423 23.2107 8.16272 23.2107 8.30121 23.2107C11.1818 23.204 14.0623 23.204 16.9498 23.1906C17.393 23.1906 17.8361 23.1505 18.2654 23.05C18.6186 22.9696 18.9509 22.8021 19.2764 22.6346C19.8026 22.3666 20.2112 21.958 20.5228 21.4824C20.8482 20.9866 21.0767 20.4507 21.1252 19.8545C21.1668 19.3185 21.1529 18.7826 20.959 18.2668C20.8482 17.9653 20.6959 17.6772 20.5297 17.3959C20.1489 16.7393 19.7611 16.0828 19.3733 15.433C19.041 14.877 18.7017 14.3209 18.3693 13.7649C18.0369 13.2089 17.7115 12.6462 17.386 12.0834C17.0537 11.5207 16.7144 10.958 16.382 10.3952C16.0635 9.8593 15.7449 9.33007 15.4333 8.78743C15.3849 8.70704 15.3433 8.58646 15.4957 8.56636C16.2712 8.44577 17.019 8.51277 17.5938 9.0822C17.8292 9.31667 17.9954 9.61813 18.1685 9.90619C18.4178 10.3081 18.6532 10.7235 18.8955 11.1321C19.1864 11.6212 19.4772 12.1035 19.7611 12.5859C20.0519 13.0749 20.3428 13.5706 20.6336 14.0597C20.9244 14.5487 21.2152 15.0445 21.5061 15.5335C21.783 16.0024 22.0808 16.458 22.3301 16.9336C22.5309 17.3222 22.697 17.7375 22.8217 18.1529C23.0294 18.8228 23.0225 19.5195 22.9394 20.2095C22.8771 20.7321 22.704 21.2345 22.4685 21.7168C22.247 22.1724 21.97 22.5944 21.6307 22.9763C21.1114 23.5524 20.5159 24.028 19.8026 24.3697C18.9232 24.785 18.0162 25.0128 17.026 24.9994C15.0733 24.9726 13.1206 24.9726 11.161 24.9592C10.5516 24.9525 9.93537 24.9592 9.32602 24.9257C8.70282 24.8922 8.0727 24.8386 7.45643 24.7382C6.91633 24.6444 6.3693 24.5171 5.87074 24.3094C4.85286 23.8874 3.99423 23.2442 3.30179 22.3934C2.88632 21.8776 2.53318 21.3216 2.3393 20.6919C2.20081 20.2631 2.11079 19.821 2 19.3855C2.00692 19.3185 2.02077 19.2314 2.02077 19.1042Z" fill="black"/>
<path d="M16.4997 3.52191C16.3959 3.54871 16.3335 3.57551 16.2643 3.58221C15.6757 3.6626 15.0733 3.70279 14.4917 3.82338C13.9169 3.94396 13.363 4.14494 12.8298 4.3995C12.2689 4.66747 11.7427 4.96893 11.258 5.35079C10.6278 5.84652 10.06 6.39586 9.67227 7.10597C9.36067 7.6888 8.99367 8.23813 8.6613 8.80756C8.37048 9.2966 8.0935 9.79903 7.80268 10.2881C7.56725 10.69 7.32489 11.0853 7.08946 11.4872C6.79864 11.983 6.50781 12.4787 6.21006 12.9744C5.92616 13.4501 5.62841 13.919 5.37221 14.4081C5.21987 14.7028 5.10908 15.0244 5.01907 15.3392C4.9152 15.7077 4.88058 16.0963 4.92905 16.4848C5.07446 17.6036 5.59379 18.5281 6.54243 19.1913C7.20718 19.6468 7.94809 19.888 8.76517 19.888C10.9464 19.888 13.1345 19.9014 15.3157 19.9148C16.5828 19.9215 17.85 19.9416 19.1172 19.9617C19.3595 19.9617 19.4218 20.0421 19.3387 20.243C19.1587 20.6718 18.8956 21.0469 18.5009 21.3216C18.1962 21.536 17.85 21.6633 17.4761 21.6633C15.6896 21.67 13.9031 21.6633 12.1166 21.6633C11.0087 21.6633 9.90077 21.6566 8.79979 21.6566C8.23199 21.6566 7.67111 21.603 7.13793 21.4154C6.77094 21.2881 6.39702 21.1742 6.0508 21.0067C5.61456 20.7924 5.21987 20.5177 4.87365 20.176C4.49974 19.8143 4.15351 19.4391 3.89731 18.9903C3.64803 18.5482 3.4126 18.0926 3.30874 17.5902C3.23257 17.2552 3.16332 16.9136 3.11485 16.5719C3.03176 15.9422 3.13563 15.3325 3.27412 14.7162C3.43338 13.986 3.80037 13.3496 4.19506 12.7199C4.53436 12.1705 4.8598 11.6212 5.1991 11.0719C5.61456 10.3886 6.03695 9.70525 6.45934 9.02863C6.82634 8.4324 7.1864 7.83618 7.57417 7.24665C8.24584 6.20828 8.99367 5.2168 9.97694 4.4129C10.4963 3.99085 11.0641 3.6559 11.6942 3.40133C12.6359 3.02617 13.6053 2.95918 14.6094 3.01948C15.2395 3.05967 15.8211 3.24725 16.4097 3.44822C16.4236 3.46832 16.4443 3.48172 16.4997 3.52191Z" fill="black"/>
<path d="M23.3963 23.4318C23.4863 23.2643 23.5833 23.0968 23.6594 22.9226C23.8464 22.4939 24.0333 22.0651 24.1857 21.623C24.4627 20.8459 24.5734 20.042 24.5388 19.2247C24.5181 18.7624 24.428 18.3002 24.3519 17.8379C24.3034 17.5566 24.2549 17.2618 24.1441 17.0005C23.9849 16.6187 23.791 16.2569 23.5833 15.8952C23.3063 15.4128 23.0085 14.9506 22.7177 14.475C22.4684 14.073 22.2191 13.6778 21.9768 13.2758C21.7344 12.8873 21.499 12.492 21.2636 12.0968C20.9312 11.5541 20.6058 11.0182 20.2734 10.4756C19.9272 9.90613 19.5879 9.33 19.2347 8.76727C18.9578 8.32512 18.5838 7.96337 18.1476 7.66191C17.6837 7.34035 17.1643 7.12597 16.6173 7.03888C16.0841 6.95849 15.5371 6.95849 14.9901 7.09918C14.4777 7.23316 14.0137 7.44753 13.5844 7.749C13.1205 8.07726 12.7743 8.506 12.4904 8.98164C12.2272 9.41039 11.9641 9.84584 11.7079 10.2746C11.4309 10.7435 11.1539 11.2125 10.877 11.6747C10.5931 12.1437 10.3161 12.6193 10.0322 13.0882C9.69983 13.6443 9.36745 14.2003 9.02816 14.7563C8.68194 15.3258 8.33572 15.8952 7.9895 16.4646C7.76099 16.8465 7.53249 17.235 7.30398 17.6169C7.22781 17.7442 7.13779 17.7509 7.03393 17.637C6.4869 16.9938 6.26532 16.2703 6.53537 15.4597C6.62539 15.1918 6.81235 14.9506 6.96468 14.7027C7.30398 14.1266 7.64328 13.5572 7.9895 12.9877C8.32187 12.4384 8.66116 11.8891 8.99354 11.3398C9.32591 10.7837 9.65135 10.221 9.98373 9.66496C10.3992 8.97494 10.8285 8.29163 11.2509 7.60831C11.7287 6.83791 12.4142 6.28188 13.2174 5.85313C14.2976 5.2703 15.4679 5.08943 16.6727 5.2636C18.203 5.47798 19.4979 6.16129 20.4604 7.35375C20.8066 7.78249 21.0835 8.25813 21.3744 8.72707C21.7275 9.3032 22.0599 9.89273 22.3992 10.4823C22.6831 10.978 22.967 11.4737 23.2578 11.9628C23.5279 12.4317 23.8118 12.9007 24.0749 13.3696C24.3865 13.9256 24.6981 14.4817 24.982 15.0511C25.2036 15.4932 25.4044 15.9421 25.5636 16.4043C25.9029 17.4025 26.1107 18.4208 25.9376 19.4926C25.8198 20.2028 25.5983 20.866 25.2382 21.4823C24.802 22.2192 24.2272 22.8489 23.5625 23.3983C23.5279 23.4251 23.4794 23.4452 23.4448 23.4719C23.4171 23.4518 23.4032 23.4451 23.3963 23.4318Z" fill="black"/>
</svg>
