<svg width="103" height="25" viewBox="0 0 103 25" fill="none" xmlns="http://www.w3.org/2000/svg">
<g clip-path="url(#clip0_14_18)">
<path d="M0.00607203 16.7556C0.286351 17.1449 0.511793 17.5099 0.792072 17.8322C1.12109 18.2094 1.4684 18.5743 1.85226 18.8906C2.35798 19.3103 2.91854 19.651 3.51565 19.9308C4.04574 20.1802 4.59412 20.3566 5.16686 20.46C5.28872 20.4843 5.41058 20.4843 5.53244 20.4843C8.06714 20.4782 10.6018 20.4782 13.1426 20.466C13.5326 20.466 13.9225 20.4295 14.3003 20.3383C14.611 20.2653 14.9035 20.1132 15.1899 19.9612C15.6529 19.7179 16.0124 19.3468 16.2866 18.915C16.573 18.4648 16.7741 17.9782 16.8167 17.4369C16.8533 16.9502 16.8411 16.4636 16.6705 15.9953C16.573 15.7215 16.4389 15.46 16.2927 15.2045C15.9576 14.6084 15.6164 14.0123 15.2752 13.4223C14.9827 12.9174 14.6842 12.4126 14.3917 11.9077C14.0992 11.4028 13.8129 10.8919 13.5265 10.3809C13.234 9.87 12.9355 9.35906 12.643 8.84811C12.3627 8.3615 12.0824 7.88096 11.8083 7.38827C11.7656 7.31527 11.729 7.20579 11.8631 7.18754C12.5455 7.07805 13.2036 7.13888 13.7093 7.6559C13.9164 7.8688 14.0627 8.14252 14.215 8.40407C14.4343 8.76904 14.6415 9.14616 14.8548 9.51721C15.1107 9.96124 15.3666 10.3992 15.6164 10.8371C15.8723 11.2812 16.1282 11.7313 16.3841 12.1753C16.64 12.6194 16.8959 13.0695 17.1518 13.5135C17.3956 13.9393 17.6576 14.3529 17.8769 14.7848C18.0536 15.1376 18.1998 15.5147 18.3095 15.8919C18.4923 16.5001 18.4862 17.1327 18.4131 17.7592C18.3583 18.2337 18.2059 18.6899 17.9988 19.1279C17.8038 19.5415 17.5601 19.9247 17.2615 20.2714C16.8045 20.7945 16.2805 21.2264 15.6529 21.5366C14.8791 21.9137 14.0809 22.1205 13.2096 22.1084C11.4914 22.084 9.77318 22.084 8.04886 22.0719C7.51267 22.0658 6.97039 22.0719 6.43421 22.0415C5.88584 22.011 5.33137 21.9624 4.78909 21.8711C4.31384 21.786 3.83249 21.6704 3.39379 21.4819C2.49812 21.0986 1.74258 20.5147 1.13328 19.7422C0.7677 19.2738 0.456956 18.769 0.286351 18.1972C0.164491 17.8079 0.0852813 17.4065 -0.012207 17.0111C-0.00611401 16.9502 0.00607203 16.8712 0.00607203 16.7556Z" fill="black"/>
<path d="M12.7465 2.60728C12.6551 2.63161 12.6003 2.65594 12.5394 2.66202C12.0215 2.73501 11.4914 2.77151 10.9795 2.881C10.4738 2.99049 9.98639 3.17297 9.51722 3.40411C9.02369 3.64742 8.56062 3.92114 8.13411 4.26785C7.57964 4.71797 7.08002 5.21675 6.73881 5.86151C6.46462 6.39071 6.14169 6.88949 5.84923 7.40652C5.59332 7.85055 5.3496 8.30675 5.09369 8.75079C4.88653 9.11575 4.67327 9.47463 4.46611 9.83959C4.2102 10.2897 3.9543 10.7398 3.6923 11.1899C3.44248 11.6218 3.18048 12.0476 2.95504 12.4916C2.82099 12.7593 2.72351 13.0512 2.6443 13.3371C2.5529 13.6717 2.52244 14.0245 2.56509 14.3773C2.69304 15.3931 3.15002 16.2325 3.98476 16.8347C4.56969 17.2483 5.22164 17.4673 5.94062 17.4673C7.85992 17.4673 9.78532 17.4794 11.7046 17.4916C12.8196 17.4977 13.9347 17.5159 15.0497 17.5342C15.2629 17.5342 15.3178 17.6072 15.2447 17.7897C15.0862 18.179 14.8547 18.5196 14.5074 18.769C14.2393 18.9636 13.9347 19.0792 13.6056 19.0792C12.0336 19.0853 10.4616 19.0792 8.88964 19.0792C7.91476 19.0792 6.93988 19.0731 5.97109 19.0731C5.47146 19.0731 4.97792 19.0244 4.50876 18.8541C4.18583 18.7386 3.85681 18.6352 3.55216 18.4831C3.1683 18.2884 2.82099 18.0391 2.51634 17.7288C2.18732 17.4004 1.88267 17.0597 1.65723 16.6522C1.43788 16.2507 1.23072 15.8371 1.13932 15.3809C1.0723 15.0768 1.01137 14.7666 0.968716 14.4563C0.8956 13.8846 0.986995 13.3311 1.10886 12.7714C1.249 12.1084 1.57193 11.5306 1.91923 10.9588C2.21779 10.46 2.50416 9.96124 2.80272 9.46246C3.1683 8.84203 3.53997 8.2216 3.91164 7.60724C4.23457 7.06589 4.55141 6.52453 4.89262 5.98925C5.48364 5.04643 6.14169 4.1462 7.0069 3.41627C7.46388 3.03306 7.9635 2.72893 8.51797 2.49779C9.34662 2.15716 10.1996 2.09633 11.0831 2.15108C11.6376 2.18757 12.1494 2.35789 12.6673 2.54037C12.6795 2.55862 12.6978 2.57078 12.7465 2.60728Z" fill="black"/>
<path d="M18.8151 20.685C18.8943 20.5329 18.9796 20.3809 19.0466 20.2227C19.2112 19.8334 19.3757 19.4441 19.5097 19.0427C19.7534 18.3371 19.8509 17.6072 19.8205 16.8651C19.8022 16.4454 19.723 16.0257 19.6559 15.606C19.6133 15.3505 19.5706 15.0829 19.4732 14.8456C19.333 14.4989 19.1624 14.1705 18.9796 13.842C18.7359 13.404 18.4739 12.9843 18.218 12.5525C17.9986 12.1875 17.7793 11.8286 17.566 11.4637C17.3528 11.1109 17.1456 10.752 16.9385 10.3931C16.646 9.90041 16.3596 9.4138 16.0672 8.9211C15.7625 8.40407 15.4639 7.88096 15.1532 7.37001C14.9095 6.96856 14.5805 6.64009 14.1966 6.36637C13.7884 6.0744 13.3314 5.87976 12.85 5.80068C12.3809 5.72769 11.8995 5.72769 11.4182 5.85542C10.9673 5.97708 10.5591 6.17172 10.1813 6.44545C9.77306 6.7435 9.46841 7.13279 9.2186 7.56466C8.98706 7.95395 8.75553 8.34933 8.53009 8.73862C8.28636 9.16441 8.04264 9.59019 7.79892 10.0099C7.54911 10.4357 7.30539 10.8676 7.05558 11.2933C6.76311 11.7982 6.47065 12.3031 6.17209 12.8079C5.86744 13.325 5.56279 13.842 5.25813 14.359C5.05706 14.7057 4.85599 15.0585 4.65492 15.4052C4.5879 15.5208 4.50869 15.5269 4.4173 15.4235C3.93595 14.8396 3.74097 14.1826 3.9786 13.4466C4.05781 13.2033 4.22232 12.9843 4.35637 12.7593C4.65492 12.2362 4.95348 11.7191 5.25813 11.2021C5.5506 10.7033 5.84916 10.2045 6.14162 9.70576C6.43409 9.2009 6.72046 8.68996 7.01292 8.18509C7.37851 7.55858 7.75627 6.93814 8.12795 6.31771C8.54836 5.6182 9.15157 5.11334 9.85836 4.72405C10.8089 4.19485 11.8386 4.03062 12.8988 4.18877C14.2453 4.38341 15.3847 5.00385 16.2317 6.08657C16.5363 6.47586 16.78 6.90773 17.0359 7.33352C17.3467 7.85663 17.6392 8.3919 17.9377 8.92718C18.1875 9.3773 18.4373 9.82742 18.6932 10.2715C18.9309 10.6972 19.1807 11.123 19.4122 11.5488C19.6864 12.0537 19.9606 12.5585 20.2104 13.0756C20.4054 13.477 20.5821 13.8846 20.7222 14.3043C21.0208 15.2106 21.2036 16.1352 21.0512 17.1084C20.9477 17.7532 20.7527 18.3553 20.4358 18.915C20.052 19.584 19.5463 20.1558 18.9613 20.6546C18.9309 20.6789 18.8882 20.6972 18.8578 20.7215C18.8334 20.7033 18.8212 20.6972 18.8151 20.685Z" fill="black"/>
</g>
<path d="M33.407 18.2025C32.2482 18.2025 31.2469 17.9494 30.4032 17.4431C29.5707 16.9256 28.9238 16.2112 28.4625 15.3C28.0125 14.3775 27.7875 13.3087 27.7875 12.0937C27.7875 10.8899 28.0125 9.82676 28.4625 8.90425C28.9238 7.98174 29.5707 7.26735 30.4032 6.7611C31.2469 6.24359 32.2482 5.98484 33.407 5.98484C34.7907 5.98484 35.9101 6.31671 36.7651 6.98047C37.6314 7.64423 38.1827 8.578 38.4189 9.78176H36.5626C36.3939 9.08425 36.0451 8.52737 35.5164 8.11111C34.9989 7.69486 34.2957 7.48673 33.407 7.48673C32.6082 7.48673 31.9163 7.67236 31.3313 8.04361C30.7463 8.41487 30.2963 8.94363 29.9813 9.62989C29.6663 10.3161 29.5088 11.1374 29.5088 12.0937C29.5088 13.0499 29.6663 13.8768 29.9813 14.5743C30.2963 15.2606 30.7463 15.7893 31.3313 16.1606C31.9163 16.5206 32.6082 16.7006 33.407 16.7006C34.2957 16.7006 34.9989 16.5037 35.5164 16.11C36.0451 15.705 36.3939 15.1593 36.5626 14.4731H38.4189C38.1827 15.6431 37.6314 16.56 36.7651 17.2237C35.9101 17.8762 34.7907 18.2025 33.407 18.2025ZM42.8509 18.2025C42.0409 18.2025 41.3209 18.0169 40.6909 17.6456C40.0609 17.2744 39.5659 16.7569 39.2059 16.0931C38.8571 15.4293 38.6827 14.6587 38.6827 13.7812C38.6827 12.8812 38.8571 12.0993 39.2059 11.4355C39.5659 10.7605 40.0609 10.2374 40.6909 9.86614C41.3209 9.48363 42.0521 9.29238 42.8847 9.29238C43.7172 9.29238 44.4316 9.47801 45.0278 9.84926C45.6241 10.2205 46.0853 10.7155 46.4116 11.3343C46.7378 11.9418 46.901 12.6168 46.901 13.3593C46.901 13.4718 46.8953 13.5956 46.8841 13.7306C46.8841 13.8543 46.8785 13.9949 46.8672 14.1524H39.9146V12.9543H45.2134C45.1797 12.2455 44.9434 11.6943 44.5047 11.3005C44.0659 10.8955 43.5203 10.693 42.8678 10.693C42.4065 10.693 41.9846 10.7999 41.6021 11.0137C41.2196 11.2162 40.9103 11.5199 40.674 11.9249C40.449 12.3187 40.3365 12.8193 40.3365 13.4268V13.8993C40.3365 14.5293 40.449 15.0637 40.674 15.5025C40.9103 15.93 41.2196 16.2562 41.6021 16.4812C41.9846 16.695 42.4009 16.8019 42.8509 16.8019C43.3909 16.8019 43.8353 16.6837 44.184 16.4475C44.5328 16.2112 44.7916 15.8906 44.9603 15.4856H46.6478C46.5016 16.0031 46.2541 16.47 45.9053 16.8862C45.5566 17.2912 45.1234 17.6119 44.6059 17.8481C44.0997 18.0844 43.5147 18.2025 42.8509 18.2025ZM47.4258 18V9.49488H48.9446L49.0458 10.9462C49.3158 10.4399 49.6983 10.0405 50.1933 9.74801C50.6884 9.44426 51.2565 9.29238 51.8977 9.29238C52.5728 9.29238 53.1521 9.42738 53.6359 9.69739C54.1196 9.96739 54.4965 10.378 54.7665 10.9293C55.0365 11.4693 55.1715 12.1499 55.1715 12.9712V18H53.484V13.1399C53.484 12.3524 53.3096 11.7562 52.9609 11.3512C52.6121 10.9462 52.1059 10.7437 51.4421 10.7437C51.0034 10.7437 50.6096 10.8505 50.2608 11.0643C49.9121 11.2668 49.6308 11.5705 49.4171 11.9755C49.2146 12.3805 49.1133 12.8756 49.1133 13.4606V18H47.4258ZM59.4901 18C58.9501 18 58.4833 17.9156 58.0895 17.7469C57.6957 17.5781 57.392 17.2969 57.1782 16.9031C56.9645 16.5094 56.8576 15.975 56.8576 15.3V10.9293H55.3895V9.49488H56.8576L57.0601 7.3686H58.5451V9.49488H60.9583V10.9293H58.5451V15.3168C58.5451 15.8006 58.6464 16.1325 58.8489 16.3125C59.0514 16.4812 59.4001 16.5656 59.8952 16.5656H60.8739V18H59.4901ZM65.1197 18.2025C64.321 18.2025 63.601 18.0169 62.9597 17.6456C62.3297 17.2744 61.8291 16.7569 61.4578 16.0931C61.0978 15.4181 60.9178 14.6418 60.9178 13.7643C60.9178 12.8643 61.1034 12.0824 61.4747 11.4187C61.846 10.7437 62.3522 10.2205 62.9935 9.84926C63.6347 9.47801 64.3547 9.29238 65.1535 9.29238C65.9635 9.29238 66.6835 9.47801 67.3135 9.84926C67.9435 10.2205 68.4385 10.738 68.7986 11.4018C69.1698 12.0655 69.3554 12.8474 69.3554 13.7474C69.3554 14.6475 69.1698 15.4293 68.7986 16.0931C68.4385 16.7569 67.9379 17.2744 67.2967 17.6456C66.6554 18.0169 65.9298 18.2025 65.1197 18.2025ZM65.1197 16.7512C65.581 16.7512 65.9973 16.6387 66.3685 16.4137C66.751 16.1887 67.0548 15.8568 67.2798 15.4181C67.516 14.9681 67.6342 14.4112 67.6342 13.7474C67.6342 13.0837 67.5217 12.5324 67.2967 12.0937C67.0717 11.6437 66.7679 11.3062 66.3854 11.0812C66.0141 10.8562 65.6035 10.7437 65.1535 10.7437C64.7035 10.7437 64.2872 10.8562 63.9047 11.0812C63.5222 11.3062 63.2128 11.6437 62.9766 12.0937C62.7516 12.5324 62.6391 13.0837 62.6391 13.7474C62.6391 14.4112 62.7516 14.9681 62.9766 15.4181C63.2128 15.8568 63.5166 16.1887 63.8879 16.4137C64.2704 16.6387 64.681 16.7512 65.1197 16.7512ZM75.2556 18.2025C74.0968 18.2025 73.0955 17.9494 72.2518 17.4431C71.4193 16.9256 70.7724 16.2112 70.3111 15.3C69.8611 14.3775 69.6361 13.3087 69.6361 12.0937C69.6361 10.8899 69.8611 9.82676 70.3111 8.90425C70.7724 7.98174 71.4193 7.26735 72.2518 6.7611C73.0955 6.24359 74.0968 5.98484 75.2556 5.98484C76.6393 5.98484 77.7587 6.31671 78.6137 6.98047C79.48 7.64423 80.0313 8.578 80.2675 9.78176H78.4112C78.2425 9.08425 77.8937 8.52737 77.365 8.11111C76.8475 7.69486 76.1443 7.48673 75.2556 7.48673C74.4568 7.48673 73.7649 7.67236 73.1799 8.04361C72.5949 8.41487 72.1449 8.94363 71.8299 9.62989C71.5149 10.3161 71.3574 11.1374 71.3574 12.0937C71.3574 13.0499 71.5149 13.8768 71.8299 14.5743C72.1449 15.2606 72.5949 15.7893 73.1799 16.1606C73.7649 16.5206 74.4568 16.7006 75.2556 16.7006C76.1443 16.7006 76.8475 16.5037 77.365 16.11C77.8937 15.705 78.2425 15.1593 78.4112 14.4731H80.2675C80.0313 15.6431 79.48 16.56 78.6137 17.2237C77.7587 17.8762 76.6393 18.2025 75.2556 18.2025ZM80.9363 18V6.18734H82.9276L86.927 14.1693L90.9096 6.18734H92.9177V18H91.2302V9.1405L87.5683 16.3462H86.2689L82.6238 9.15738V18H80.9363ZM97.887 18.2025C97.0207 18.2025 96.2613 18.0506 95.6088 17.7469C94.9563 17.4319 94.45 16.9931 94.09 16.4306C93.73 15.8681 93.55 15.21 93.55 14.4562H95.3219C95.3332 14.8837 95.4344 15.2775 95.6257 15.6375C95.8282 15.9862 96.1151 16.2675 96.4863 16.4812C96.8688 16.6837 97.3357 16.785 97.887 16.785C98.3595 16.785 98.7645 16.7062 99.102 16.5487C99.4507 16.3912 99.7151 16.1775 99.8951 15.9075C100.075 15.6262 100.165 15.3056 100.165 14.9456C100.165 14.5293 100.069 14.1862 99.8782 13.9162C99.687 13.6462 99.4282 13.4268 99.102 13.2581C98.787 13.0781 98.4157 12.9206 97.9882 12.7856C97.572 12.6506 97.1332 12.5043 96.672 12.3468C95.7382 12.043 95.0407 11.6493 94.5794 11.1655C94.1294 10.6818 93.9044 10.0518 93.9044 9.27551C93.9044 8.61175 94.0619 8.03799 94.3769 7.55423C94.6919 7.05922 95.1307 6.67672 95.6932 6.40672C96.2669 6.12546 96.942 5.98484 97.7182 5.98484C98.4832 5.98484 99.1526 6.12546 99.7264 6.40672C100.3 6.68797 100.75 7.0761 101.076 7.57111C101.403 8.06611 101.566 8.6455 101.566 9.30926H99.777C99.777 9.0055 99.6982 8.70737 99.5407 8.41487C99.3832 8.12236 99.147 7.88611 98.832 7.70611C98.517 7.51486 98.1288 7.41923 97.6676 7.41923C97.2851 7.40798 96.942 7.46986 96.6382 7.60486C96.3344 7.73986 96.0982 7.93674 95.9294 8.19549C95.7607 8.45424 95.6763 8.76362 95.6763 9.12363C95.6763 9.48363 95.7494 9.77614 95.8957 10.0011C96.0532 10.2149 96.2782 10.4005 96.5707 10.558C96.8632 10.7155 97.2007 10.8618 97.5832 10.9968C97.977 11.1205 98.4101 11.2612 98.8826 11.4187C99.4676 11.6099 99.9851 11.8462 100.435 12.1274C100.896 12.3974 101.256 12.7518 101.515 13.1906C101.785 13.6181 101.92 14.1693 101.92 14.8443C101.92 15.4293 101.768 15.975 101.465 16.4812C101.161 16.9875 100.711 17.4037 100.114 17.73C99.5182 18.045 98.7757 18.2025 97.887 18.2025Z" fill="black"/>
<defs>
<clipPath id="clip0_14_18">
<rect width="21.094" height="19.9877" fill="white" transform="translate(0 2.13889)"/>
</clipPath>
</defs>
</svg>
